<?xml version="1.0" encoding="UTF-8"?>
<svg width="1452px" height="273px" viewBox="0 0 1452 273" version="1.1" xmlns="http://www.w3.org/2000/svg" xmlns:xlink="http://www.w3.org/1999/xlink">
    <title>Group</title>
    <g id="Page-1" stroke="none" stroke-width="1" fill="none" fill-rule="evenodd">
        <g id="Artboard" transform="translate(8.000000, -154.000000)">
            <g id="Group" transform="translate(-8.000000, 154.000000)">
                <rect id="Rectangle" fill="#5830FF" x="0" y="0" width="1452" height="272.25"></rect>
                <path d="M1228.35541,59.4038302 C1235.20673,59.4038302 1240.78343,65.0298297 1240.79798,71.949613 C1240.80477,72.1368196 1240.82902,73.0199251 1240.82902,74.5597239 C1240.82902,77.9715888 1240.70583,84.6110523 1239.97442,94.0615553 C1238.97917,106.937645 1236.61036,127.644068 1230.9871,153.162974 C1230.82414,153.901019 1230.17616,154.40383 1229.45736,154.40383 C1229.34484,154.40383 1229.23038,154.391088 1229.11494,154.365605 C1228.38548,154.200941 1227.88786,153.548169 1227.88689,152.822866 C1227.88689,152.707209 1227.8995,152.590573 1227.92472,152.473936 C1233.50142,127.16968 1235.85277,106.646544 1236.84317,93.8851302 C1237.57166,84.4855945 1237.69,77.803985 1237.69,74.4626902 C1237.69,72.8885865 1237.66284,72.0564482 1237.66187,72.0309646 C1237.66187,72.0133221 1237.6609,71.9946994 1237.6609,71.9770569 C1237.6609,66.7921201 1233.48687,62.5736006 1228.35541,62.5736006 C1223.22396,62.5736006 1219.04895,66.7921201 1219.04895,71.9770569 L1219.04801,72.1486108 C1219.03306,74.1257795 1218.78748,92.80732 1214.94378,115.756938 C1214.79925,116.619461 1213.99122,117.200683 1213.13565,117.054643 C1212.3703,116.923304 1211.82902,116.251909 1211.82902,115.493281 C1211.82902,115.406048 1211.83581,115.316856 1211.85133,115.227663 C1215.69172,92.3027541 1215.90076,73.7091512 1215.91134,72.0892458 L1215.91187,71.9760768 C1215.91187,65.0445318 1221.49342,59.4038302 1228.35541,59.4038302 Z M1228.1947,69.4038302 L1228.3436,69.4103678 C1229.17721,69.4839276 1229.82902,70.1691413 1229.82902,71.0034816 C1229.82902,71.406115 1229.69257,111.702095 1218.03703,152.23748 C1217.83387,152.94283 1217.17792,153.40383 1216.46537,153.40383 C1216.3178,153.40383 1216.16923,153.385034 1216.02065,153.344474 C1215.30001,153.14563 1214.82801,152.502604 1214.82902,151.804179 C1214.82902,151.660734 1214.84924,151.515312 1214.89067,151.370878 C1226.1893,112.076653 1226.55117,72.9962001 1226.56112,71.0743999 L1226.56138,71.0034816 C1226.56138,70.1200625 1227.29213,69.4038302 1228.1947,69.4038302 Z M1247.21532,104.40388 L1247.36322,104.411577 C1248.20226,104.493697 1248.83002,105.189247 1248.82902,106.002536 C1248.82902,106.054974 1248.82701,106.107413 1248.82097,106.16084 C1247.71332,117.158052 1245.91151,133.878957 1243.06343,152.047359 C1242.93968,152.837892 1242.24653,153.40383 1241.45779,153.40383 C1241.3753,153.40383 1241.2918,153.397894 1241.2083,153.385032 C1240.40347,153.263335 1239.82801,152.580647 1239.82902,151.803966 C1239.82902,151.722835 1239.83606,151.641704 1239.84814,151.560573 C1242.68415,133.468355 1244.47993,116.805824 1245.58355,105.845221 C1245.66224,105.064253 1246.30133,104.470904 1247.06982,104.409146 L1247.21532,104.40388 Z M1229.44478,39.4038302 C1237.87863,39.6397512 1245.77065,43.1438583 1251.66754,49.2706292 C1257.57513,55.4092182 1260.82902,63.5106195 1260.82902,72.0827804 C1260.67921,82.7576027 1258.95742,112.755242 1253.50509,150.044733 C1253.38933,150.83557 1252.71812,151.40383 1251.95159,151.40383 C1251.87571,151.40383 1251.79789,151.397921 1251.7191,151.386103 C1250.93991,151.268905 1250.37863,150.590342 1250.37669,149.815262 C1250.37669,149.737459 1250.38155,149.657686 1250.39419,149.577913 C1255.81929,112.471604 1257.53427,82.6463143 1257.68311,72.0601288 C1257.68311,64.3457749 1254.74731,57.0332409 1249.41365,51.4934425 C1244.09264,45.9625078 1236.9691,42.8001446 1229.3582,42.5874163 C1228.55248,42.565093 1227.90468,41.9331152 1227.83519,41.1403296 L1227.82902,40.9988484 L1227.82902,40.9525603 C1227.85334,40.0730865 1228.58486,39.3817197 1229.44478,39.4038302 Z M1212.5753,120.433265 C1213.31487,120.580151 1213.82998,121.237733 1213.82902,121.976054 C1213.82902,122.075275 1213.81943,122.176441 1213.79928,122.278581 C1212.40648,129.515874 1209.68226,140.121816 1206.86115,149.298781 C1206.653,149.971927 1206.04101,150.40383 1205.38106,150.40383 C1205.22758,150.40383 1205.07219,150.380484 1204.91871,150.331846 C1204.25396,150.121731 1203.82806,149.500141 1203.82902,148.829914 C1203.82902,148.675246 1203.85108,148.517659 1203.89905,148.362019 C1206.69041,139.28622 1209.38202,128.810627 1210.7566,121.675473 C1210.91871,120.822367 1211.73789,120.266924 1212.5753,120.433265 Z M1206.2442,88.4038312 L1206.3883,88.4104747 C1207.21171,88.4868036 1207.82902,89.1766998 1207.82902,89.9850036 L1207.82742,90.0583968 L1207.82742,90.0583968 L1207.82215,90.13179 L1207.68475,91.6192257 C1206.34806,106.157931 1204.32634,128.1299 1195.84296,145.513326 C1195.56816,146.076007 1195.00188,146.40383 1194.41401,146.40383 C1194.18142,146.40383 1193.94489,146.352944 1193.72113,146.244322 C1193.15682,145.970321 1192.82804,145.405683 1192.82902,144.819515 C1192.82902,144.586614 1192.88006,144.351756 1192.98899,144.128641 C1201.09255,127.524282 1203.14581,106.304509 1204.46428,91.9961443 L1204.52557,91.3305458 L1204.66198,89.8411529 C1204.73352,89.0669905 1205.35406,88.4760755 1206.10247,88.4099887 L1206.2442,88.4038312 Z M1228.07854,29.4038302 C1251.65053,29.4038302 1270.82902,48.4753683 1270.82902,71.9181001 C1270.82606,72.227808 1270.4831,101.907822 1264.85669,145.022886 C1264.7532,145.821658 1264.06826,146.40383 1263.27983,146.40383 C1263.21084,146.40383 1263.14186,146.39991 1263.07188,146.390109 C1262.26867,146.2872 1261.68425,145.606038 1261.68327,144.821968 C1261.68327,144.753362 1261.68819,144.684755 1261.69706,144.615169 C1267.18487,102.562188 1267.62401,73.3811661 1267.64124,71.9549335 L1267.6418,71.9024187 C1267.6418,50.2228657 1249.89431,32.5734357 1228.07854,32.5734357 C1210.37047,32.5734357 1194.69457,44.4080019 1189.95711,61.3537284 C1189.72156,62.1975844 1188.84148,62.6905689 1187.99491,62.4563278 C1187.28927,62.2612902 1186.82804,61.6242328 1186.82902,60.9293502 C1186.82902,60.7891976 1186.84775,60.6470848 1186.88717,60.504972 C1192.00603,42.1930023 1208.94538,29.4038302 1228.07854,29.4038302 Z M1217.70018,42.376735 C1217.78707,42.5799282 1217.82902,42.790026 1217.82902,42.9971647 C1217.82902,43.6185808 1217.45949,44.2094193 1216.84328,44.4678495 C1205.75545,49.1097292 1198.5896,59.7951271 1198.5896,71.6888341 L1198.58996,71.734444 C1198.59005,71.7480165 1198.59016,71.7645482 1198.59025,71.7839995 L1198.59016,72.1868444 C1198.58254,74.4383897 1198.46119,84.0696869 1197.02361,96.0680729 C1195.50555,108.737071 1192.16581,126.73841 1184.87613,140.546671 C1184.5875,141.092136 1184.02422,141.40383 1183.44196,141.40383 C1183.19028,141.40383 1182.93561,141.34662 1182.69691,141.223324 C1182.14362,140.938261 1181.82802,140.381946 1181.82902,139.805903 C1181.82902,139.558323 1181.88695,139.306797 1182.01079,139.07204 C1194.82849,114.797594 1195.34574,76.5104738 1195.3613,72.1144713 L1195.36131,71.7221859 L1195.36073,71.7026433 C1195.36073,58.5118535 1203.29859,46.6743698 1215.58389,41.5304254 C1216.40284,41.187167 1217.35163,41.5659349 1217.70018,42.376735 Z M1271.71862,42.0978503 C1277.67896,50.869193 1280.82902,61.1408192 1280.82902,71.8032673 C1280.82412,72.1360074 1280.35607,103.351552 1275.59132,139.024633 C1275.48459,139.823012 1274.80405,140.40383 1274.02462,140.40383 C1273.95314,140.40383 1273.88263,140.398908 1273.81115,140.390048 C1273.01605,140.282744 1272.43735,139.59856 1272.43833,138.812978 C1272.43833,138.743083 1272.44322,138.672204 1272.45302,138.60034 C1277.19328,103.115287 1277.6584,72.0917076 1277.66134,71.7825941 C1277.66134,61.7846417 1274.7032,52.1332114 1269.10418,43.8934652 C1268.91813,43.618807 1268.82805,43.3057557 1268.82902,42.9956578 C1268.82902,42.4876877 1269.07089,41.9895621 1269.51838,41.681433 C1270.24004,41.1852762 1271.22511,41.3723195 1271.71862,42.0978503 Z M1187.22176,66.4038302 C1188.06007,66.4038302 1188.74854,67.0352577 1188.82245,67.8409673 L1188.82902,67.9848675 L1188.82902,72.078747 C1188.82803,72.1921671 1188.7336,82.4625542 1186.97923,94.9505 C1184.60859,111.826631 1180.49651,124.534573 1174.75927,132.720376 C1174.44716,133.165257 1173.9452,133.40383 1173.43529,133.40383 C1173.1202,133.40383 1172.80213,133.312899 1172.52381,133.124191 C1172.07155,132.817174 1171.82803,132.323406 1171.82902,131.820837 C1171.82902,131.511865 1171.92047,131.198982 1172.1133,130.92521 C1185.03962,112.483216 1185.6024,73.262356 1185.61526,72.0908082 L1185.61549,67.9848675 C1185.61549,67.1117282 1186.33414,66.4038302 1187.22176,66.4038302 Z M1290.14368,70.4038302 C1291.075,70.4038302 1291.82902,71.1131589 1291.82902,71.988063 C1291.82902,95.6878719 1289.04445,121.610701 1288.1924,128.991051 C1288.09854,129.802272 1287.36746,130.40383 1286.51749,130.40383 C1286.457,130.40383 1286.39547,130.400891 1286.33394,130.395013 C1285.46937,130.306836 1284.82902,129.619062 1284.82902,128.820577 C1284.82902,128.763752 1284.83215,128.706928 1284.83945,128.649123 C1285.68838,121.308943 1288.4573,95.5291547 1288.4573,71.988063 C1288.4573,71.1131589 1289.21132,70.4038302 1290.14368,70.4038302 Z M1190.23385,37.7597532 C1190.62499,38.073308 1190.82802,38.5303707 1190.82902,38.9913651 C1190.82902,39.3452201 1190.71158,39.700058 1190.46873,39.9959201 C1183.25301,48.7626772 1179.27689,59.8226112 1179.26893,71.1430218 C1179.2754,71.3045734 1179.2956,71.8864983 1179.29845,72.8226895 L1179.29846,73.26883 C1179.28988,76.1750533 1179.10933,81.7646191 1178.0746,88.6018333 C1176.6852,97.7735578 1173.41972,110.966451 1165.75512,121.728557 C1165.44062,122.16891 1164.94298,122.40383 1164.43639,122.40383 C1164.11691,122.40383 1163.79444,122.309469 1163.51277,122.113866 C1163.0659,121.804243 1162.82803,121.311794 1162.82902,120.811483 C1162.82902,120.495962 1162.92457,120.177493 1163.12163,119.900306 C1175.22813,102.904455 1176.0751,79.1195028 1176.0751,72.8208841 C1176.0751,71.8379536 1176.05321,71.280632 1176.05221,71.2413148 C1176.05122,71.2196903 1176.05022,71.1970829 1176.05022,71.1744755 C1176.05022,59.1149012 1180.28411,47.3305475 1187.9706,37.9907419 C1188.53094,37.3095711 1189.54512,37.2063633 1190.23385,37.7597532 Z M1301.20204,72.0897826 C1301.20105,72.3211241 1301.09045,94.8173577 1299.90443,113.553062 C1299.8511,114.39672 1299.14799,115.044476 1298.31254,115.044476 C1298.27798,115.044476 1298.2444,115.044476 1298.20984,115.041523 C1297.3655,114.988364 1296.71374,114.288433 1296.71374,113.454619 C1296.71374,113.421148 1296.71473,113.387678 1296.7167,113.353222 C1297.87416,95.0848475 1298.00353,73.2010784 1298.00917,72.1227106 L1298.00937,72.0828916 C1298.00937,36.9682122 1271.67999,7.27282948 1236.76407,3.0151623 C1235.95529,2.9157347 1235.36278,2.23057023 1235.36179,1.43908712 C1235.36179,1.37411463 1235.36475,1.30815771 1235.37364,1.24121635 C1235.44178,0.683973307 1235.79087,0.228793653 1236.26279,0.000957296297 L1238.27996,0.0015203559 C1274.23237,4.9503675 1301.20204,35.7416907 1301.20204,72.0897826 Z M1167.23548,76.4040231 L1167.37864,76.4083827 C1168.20052,76.4697498 1168.82805,77.1715134 1168.82902,78.0019502 C1168.82902,78.0405521 1168.82805,78.0801439 1168.82515,78.1197356 C1167.71513,93.8643808 1163.86486,104.60364 1157.38362,110.041566 C1157.09257,110.285055 1156.74255,110.40383 1156.39446,110.40383 C1155.94194,110.40383 1155.49233,110.203892 1155.18388,109.817872 C1154.94602,109.519945 1154.82902,109.16065 1154.82902,108.804324 C1154.82902,108.341101 1155.0253,107.881836 1155.40143,107.566092 C1161.19424,102.707196 1164.65967,92.7221591 1165.70684,77.8891137 C1165.76185,77.1060771 1166.35547,76.4927473 1167.09517,76.4126948 L1167.23548,76.4040231 Z M1228.94883,49.4038302 C1241.5647,49.4038302 1251.82902,59.5738646 1251.82902,72.0738545 C1251.82902,72.1595654 1251.81311,80.8094638 1250.46382,96.9428052 C1250.39323,97.7742989 1249.69025,98.4038302 1248.86298,98.4038302 C1248.81823,98.4038302 1248.77349,98.4018598 1248.72875,98.3979191 C1247.88855,98.3289564 1247.25318,97.6324327 1247.25318,96.811776 C1247.25318,96.768428 1247.25517,96.7240948 1247.25915,96.6797616 C1248.52052,81.606185 1248.60722,73.1547626 1248.613,72.1702938 L1248.6134,72.0738545 C1248.6134,61.3304442 1239.79184,52.589909 1228.94883,52.589909 C1218.10583,52.589909 1209.28426,61.3304442 1209.28426,72.0738545 L1209.28415,72.1135028 C1209.2826,72.4785488 1209.26208,75.121593 1209.04165,79.4587792 C1208.9979,80.3375616 1208.2462,81.0163521 1207.35529,80.9700485 C1206.4972,80.9276857 1205.82902,80.2242657 1205.82902,79.3809499 C1205.82902,79.3543499 1205.82902,79.3267648 1205.83101,79.2991797 C1206.03474,75.277874 1206.06414,72.6864658 1206.06808,72.1657048 L1206.06865,72.0689286 C1206.06865,59.5738646 1216.33296,49.4038302 1228.94883,49.4038302 Z M1226.85486,0.898397553 C1226.85585,0.921054896 1226.85585,0.943712239 1226.85585,0.965384479 C1226.85585,1.81454228 1226.18121,2.51987521 1225.32158,2.55533887 C1207.25862,3.28923975 1190.39261,10.8538369 1177.82965,23.8542261 C1165.23207,36.891064 1158.29475,54.038732 1158.29475,72.1370233 C1158.29475,72.1892337 1158.29178,72.2414441 1158.28683,72.2926694 C1158.11966,73.982119 1156.44888,88.8719336 1149.21578,91.651891 C1149.02684,91.7238035 1148.83296,91.758282 1148.64006,91.758282 C1147.99906,91.758282 1147.39267,91.371137 1147.14735,90.7387016 C1147.07513,90.549562 1147.04051,90.355497 1147.04051,90.1643872 C1147.0415,89.5250561 1147.43125,88.9231589 1148.06434,88.6798387 C1150.20598,87.8562936 1152.15967,84.7088931 1153.56336,79.8168773 C1154.62676,76.1109242 1155.03629,72.5970658 1155.09564,72.0532896 C1155.11642,53.1570658 1162.37029,35.2597353 1175.52479,21.6456277 C1187.00473,9.76573525 1201.92062,2.22743563 1218.10629,0.00151614802 L1226.5295,0.00165480601 C1226.72119,0.251836568 1226.84079,0.560634822 1226.85486,0.898397553 Z M1269.693,0.002 L1269.83413,0.0817481158 L1269.90509,0.122137292 L1270.13372,0.252293874 L1270.13372,0.252293874 L1270.36235,0.383189283 L1270.55439,0.496599134 L1270.7457,0.610747812 L1271.17032,0.85948603 L1271.17032,0.85948603 L1271.59419,1.11117955 L1271.93813,1.31805094 L1272.71086,1.793732 L1272.71086,1.793732 L1273.47843,2.27754015 L1273.47941,2.27852525 L1273.86572,2.52972622 L1273.86584,2.53058819 L1273.86671,2.53071133 L1274.44001,2.9043112 L1275.00887,3.28234404 C1275.17936,3.39661586 1275.34985,3.51285788 1275.51935,3.62811479 L1276.04301,3.98780011 L1276.04301,3.98780011 L1276.56297,4.35117955 L1277.03896,4.68709929 C1279.57317,6.49793541 1282.03574,8.48000899 1284.37616,10.5897323 L1285.24799,11.386777 L1285.24897,11.386777 L1285.34752,11.4774064 C1285.62937,11.7394435 1285.91121,12.0004955 1286.18813,12.266473 L1286.39779,12.4695271 L1286.39779,12.4695271 L1286.60598,12.67332 L1286.8622,12.9235359 L1287.25836,13.3111735 L1287.25836,13.3111735 L1287.65157,13.7017664 L1287.88044,13.9343735 L1287.88044,13.9343735 L1288.10784,14.1677195 L1288.30494,14.3706505 C1288.31479,14.3814866 1288.32662,14.3933079 1288.33746,14.404144 L1288.7096,14.7873486 L1288.7096,14.7873486 L1289.07952,15.1735085 L1289.08051,15.1735085 L1289.55452,15.6818211 L1289.70038,15.8394374 C1289.95857,16.1182212 1290.21677,16.397005 1290.47102,16.6797293 L1290.74671,16.9874505 L1290.74671,16.9874505 L1291.02092,17.2973881 L1291.08497,17.3712708 C1291.08596,17.3712708 1291.08596,17.3712708 1291.08596,17.3722559 L1291.45797,17.795234 L1291.45797,17.795234 L1291.82704,18.2204286 L1292.12835,18.5758041 L1292.42818,18.9326572 C1292.66863,19.2193218 1292.9081,19.5059865 1293.14462,19.7956064 L1293.43915,20.1598478 L1293.43915,20.1598478 L1293.73295,20.5255669 L1294.07996,20.9643066 L1294.42475,21.4052629 L1294.71079,21.7760306 L1294.71079,21.7760306 L1294.99535,22.1490148 L1295.33189,22.597113 L1295.66547,23.0474277 L1295.94251,23.4244754 L1295.94251,23.4244754 L1296.21734,23.8030008 L1296.54452,24.2624277 L1296.86874,24.724071 L1297.13494,25.1051823 L1297.13494,25.1051823 L1297.39893,25.48851 L1297.40274,25.493805 L1297.70995,25.9483525 L1297.70995,25.9483525 L1298.02126,26.416476 L1298.02126,26.416476 L1298.03062,26.4312525 L1298.0316,26.4312525 L1298.10256,26.5386286 C1298.24939,26.7602765 1298.39623,26.9809394 1298.54011,27.2045575 L1298.84955,27.6886119 L1298.84955,27.6886119 L1299.15603,28.1748828 L1299.27823,28.3709181 C1299.39945,28.5630129 1299.52066,28.7541227 1299.63892,28.9481878 L1299.92877,29.4289175 L1299.92877,29.4289175 L1300.21641,29.9126025 L1300.36226,30.1578928 C1300.47263,30.3450622 1300.58498,30.5312464 1300.69338,30.7194009 L1300.97991,31.2216797 L1300.97991,31.2216797 L1301.262,31.726175 L1301.4246,32.0157949 C1301.51921,32.1832623 1301.61381,32.3497445 1301.70448,32.5181969 L1301.99815,33.0639433 L1301.99815,33.0639433 L1302.28591,33.612645 L1302.45541,33.9308329 C1302.52834,34.0697323 1302.60225,34.2076466 1302.67419,34.3465459 L1303.0637,35.1191121 L1303.0637,35.1191121 L1303.44582,35.8961111 L1303.50692,36.0182638 C1303.53747,36.078355 1303.56802,36.1384462 1303.59659,36.2005076 C1303.79238,36.6057128 1303.98903,37.0218637 1304.18394,37.4437062 L1304.47466,38.080082 L1304.5498,38.2501352 L1304.62346,38.4209272 L1304.72201,38.6435602 L1304.72201,38.6455304 L1304.72694,38.6553814 L1305.01876,39.3184781 L1305.30541,39.9852689 L1305.40778,40.2332683 L1305.50941,40.4827454 L1305.65033,40.8295012 C1305.79914,41.1900485 1305.94696,41.5515809 1306.08985,41.9160686 L1306.20134,42.2039646 L1306.20134,42.2039646 L1306.3106,42.4933383 L1306.4259,42.7997049 C1306.56091,43.1553267 1306.69691,43.5109485 1306.82699,43.8695256 L1306.82798,43.8705107 L1306.93897,44.1829111 L1307.04774,44.4960503 L1307.12953,44.7285344 C1307.14333,44.7679384 1307.15713,44.8073425 1307.16994,44.8467466 C1307.27932,45.1570537 1307.38773,45.4663757 1307.49219,45.778653 C1307.49219,45.7796381 1307.49317,45.7806232 1307.49317,45.7816083 L1307.49416,45.7837016 L1307.49613,45.7896122 L1307.49712,45.7934295 L1307.50106,45.8032805 L1307.51584,45.8476101 C1307.51781,45.8515505 1307.5188,45.8554909 1307.51978,45.8584462 C1307.51978,45.8594313 1307.51978,45.8594313 1307.52077,45.8594313 L1307.52225,45.8648494 L1307.52372,45.8702674 L1307.64063,46.2269974 L1307.64063,46.2269974 L1307.75531,46.5844663 L1307.79079,46.6938126 L1307.80458,46.7371571 C1307.88441,46.9834325 1307.96128,47.2306931 1308.03913,47.4789388 C1308.07756,47.6020765 1308.11797,47.7252142 1308.1564,47.849337 C1308.24903,48.1507782 1308.33773,48.4541896 1308.42741,48.757601 L1308.58902,49.3134447 L1308.58902,49.3134447 L1308.74769,49.8707661 L1308.74769,49.8717512 L1308.74966,49.8791394 C1308.83145,50.1751625 1308.9093,50.4647825 1308.98617,50.7553875 C1308.99011,50.770164 1308.99406,50.7849406 1308.998,50.798732 C1309.09655,51.1701154 1309.19411,51.5414988 1309.28773,51.9148524 L1309.40401,52.385608 L1309.40401,52.385608 L1309.51734,52.8556247 L1309.51734,52.8566098 L1309.64928,53.4188567 L1309.77751,53.9825812 C1309.84846,54.2978138 1309.91646,54.6150166 1309.98446,54.9322194 L1310.10198,55.4993918 L1310.10198,55.4993918 L1310.21506,56.0680418 C1310.27813,56.3872148 1310.34022,56.7063878 1310.39935,57.0265459 C1310.46932,57.4087654 1310.53633,57.7939403 1310.60137,58.1791151 L1310.68218,58.6562738 L1310.68218,58.6562738 L1310.76003,59.135649 L1310.84909,59.7220309 L1310.93446,60.3098904 L1310.93545,60.3138308 L1310.95713,60.4714471 C1310.99458,60.7354544 1311.03301,60.9994617 1311.0675,61.2644541 L1311.14264,61.8641349 L1311.14264,61.8641349 L1311.21335,62.4652933 L1311.24193,62.7036879 C1311.24686,62.7470324 1311.25179,62.7903769 1311.25671,62.8347065 C1311.27741,63.0189205 1311.30007,63.2041197 1311.3188,63.3893188 C1311.31978,63.3962145 1311.32077,63.4021251 1311.32077,63.4080357 L1311.37485,63.9539053 L1311.37485,63.9539053 L1311.42523,64.5005137 L1311.43804,64.6512343 L1311.46465,64.9349436 L1311.49335,65.2512844 L1311.49335,65.2512844 L1311.51983,65.5683641 L1311.56295,66.1718621 L1311.56295,66.1718621 L1311.60163,66.776099 L1311.60557,66.8430859 L1311.62725,67.173095 C1311.63908,67.3622346 1311.65287,67.5523592 1311.66273,67.743469 L1311.69328,68.4268834 L1311.69328,68.4268834 L1311.71792,69.1117755 L1311.73171,69.4762632 C1311.73861,69.628954 1311.74551,69.7806596 1311.74945,69.9333504 C1311.76818,70.6859682 1311.77902,71.4277499 1311.77902,72.1370233 C1311.77902,73.0874495 1311.76073,74.0593116 1311.72263,75.0889243 L1311.69032,75.8725295 C1311.64992,76.7226724 1310.95023,77.3945119 1310.09976,77.3945119 C1310.08597,77.3945119 1310.07315,77.3945119 1310.05837,77.3935268 C1309.17834,77.3708694 1308.48358,76.6399239 1308.50723,75.7602279 C1308.51019,75.6232987 1308.51413,75.4893249 1308.5161,75.3583063 C1308.53187,74.7662601 1308.54468,74.2461263 1308.55453,73.8038156 C1308.55552,73.7437244 1308.5565,73.6836332 1308.55847,73.6274824 C1308.55946,73.5959591 1308.55946,73.565421 1308.56045,73.5348828 C1308.58016,72.7162632 1308.59001,72.2227271 1308.59198,72.124217 C1308.59198,71.6723836 1308.5876,71.2065398 1308.57913,70.7325234 L1308.5634,70.016099 L1308.5634,70.0013225 L1308.55675,69.8062723 L1308.55675,69.8062723 L1308.54862,69.6112221 L1308.54271,69.4624717 L1308.53679,69.319632 L1308.53384,69.223092 C1308.51807,68.7847217 1308.50329,68.3463513 1308.47964,67.9109363 L1308.46522,67.6476678 L1308.46522,67.6476678 L1308.44712,67.385877 L1308.42741,67.0775401 L1308.42149,66.9741045 C1308.39686,66.5879445 1308.3732,66.2017846 1308.34266,65.8166098 C1308.32787,65.6205745 1308.30915,65.4235541 1308.29141,65.2275189 L1308.2648,64.9339585 L1308.25101,64.7852081 C1308.21947,64.4364821 1308.18794,64.087756 1308.15147,63.7400151 L1308.1155,63.4076663 L1308.1155,63.4076663 L1308.07658,63.0760564 L1308.048,62.8327363 C1308.00365,62.4475614 1307.95832,62.0623866 1307.90806,61.6781969 L1307.85645,61.3004103 L1307.85645,61.3004103 L1307.80261,60.9226238 L1307.77896,60.760082 C1307.75925,60.6142869 1307.7356,60.4694769 1307.71491,60.3246669 L1307.66465,59.9776648 L1307.66465,59.9776648 L1307.61143,59.6321403 L1307.5374,59.1717284 L1307.5374,59.1717284 L1307.45967,58.7120552 L1307.36395,58.156704 L1307.36395,58.156704 L1307.26454,57.6028305 L1307.26454,57.6018454 L1307.17819,57.1420491 L1307.08814,56.6837305 L1306.97949,56.1366295 L1306.97949,56.1366295 L1306.86641,55.5902674 L1306.76835,55.1334264 L1306.66734,54.6780631 C1306.58555,54.3145605 1306.50277,53.9540132 1306.41802,53.5944511 C1306.34509,53.2930099 1306.27217,52.9915687 1306.19727,52.6911127 C1306.12139,52.3916417 1306.04354,52.0931558 1305.9647,51.7956551 L1305.94154,51.7056414 L1305.94154,51.7056414 L1305.91838,51.6163665 L1305.81281,51.2239266 L1305.7065,50.8322255 C1305.69665,50.7967618 1305.68679,50.760313 1305.67792,50.7248494 C1305.5774,50.3682425 1305.47492,50.0126207 1305.36947,49.656999 C1305.28373,49.3634386 1305.198,49.0708633 1305.10832,48.7802583 L1304.94202,48.2457174 L1304.94202,48.2457174 L1304.77128,47.713393 L1304.75552,47.6641379 L1304.71807,47.5469108 C1304.64416,47.3163969 1304.57025,47.0858831 1304.49338,46.8573395 L1304.30983,46.3193507 L1304.30983,46.3193507 L1304.12185,45.7835785 L1304.03907,45.5441987 C1303.97009,45.3481634 1303.90209,45.1511431 1303.83114,44.9560929 L1303.64168,44.4431011 L1303.64168,44.4431011 L1303.44779,43.931587 L1303.42217,43.8646 L1303.42217,43.8636149 L1303.32855,43.6153693 C1303.25956,43.4360807 1303.19255,43.2558071 1303.12357,43.0775037 L1302.91501,42.5572467 L1302.91501,42.5572467 L1302.70277,42.0392063 L1302.66138,41.9387259 L1302.66138,41.9367557 L1302.66039,41.9367557 L1302.55495,41.6766888 C1302.49385,41.5249831 1302.43275,41.3732775 1302.36869,41.2225569 L1302.09325,40.5812556 L1302.09325,40.5812556 L1301.81189,39.9429096 L1301.69955,39.6867831 C1301.65718,39.5872878 1301.6148,39.4887776 1301.57045,39.3912525 C1301.47289,39.1765003 1301.37533,38.9647034 1301.27777,38.7529065 C1301.15458,38.4859439 1301.03041,38.2229217 1300.90624,37.9618697 L1300.81656,37.7719914 L1300.81656,37.7719914 L1300.72688,37.5835906 L1300.58202,37.2910154 L1300.21419,36.5436925 L1300.21419,36.5436925 L1299.83897,35.8015414 L1299.74165,35.6146183 L1299.64286,35.4291729 L1299.50982,35.1760017 L1299.50883,35.1760017 L1299.46449,35.0912829 C1299.2802,34.7415718 1299.09789,34.3918606 1298.90769,34.0451048 L1298.77921,33.8122513 L1298.77921,33.8122513 L1298.64851,33.5801367 L1298.51547,33.3427271 L1298.51449,33.3407569 L1298.5135,33.3407569 L1298.47901,33.2777104 C1298.29867,32.9555821 1298.1203,32.6334538 1297.93503,32.3142808 C1297.91236,32.2738916 1297.88772,32.2344876 1297.86407,32.1940984 L1297.74508,31.9911674 L1297.74508,31.9911674 L1297.6246,31.7882364 L1297.5024,31.5823501 L1297.50142,31.581365 L1297.47382,31.5360503 L1297.19838,31.0714517 L1297.19838,31.0714517 L1296.91998,30.6090695 L1296.75122,30.3373045 L1296.58098,30.0662784 L1296.45681,29.8682729 L1296.16215,29.4001032 L1295.86454,28.9334112 L1295.65599,28.6154696 L1295.65599,28.6154696 L1295.4467,28.2990056 L1295.37476,28.1906444 C1295.21511,27.9512647 1295.05447,27.7118849 1294.89384,27.4734903 C1294.85147,27.4114289 1294.81106,27.3483824 1294.76869,27.2863209 C1294.76869,27.2863209 1294.7677,27.2853358 1294.76672,27.2843507 L1294.63405,27.0913939 L1294.63405,27.0913939 L1294.50064,26.8991759 L1294.25821,26.5494647 L1294.25772,26.5493416 L1294.25722,26.5484796 L1293.94581,26.1051838 L1293.63145,25.6648433 L1293.3666,25.2993705 L1293.3666,25.2993705 L1293.10027,24.936853 L1292.77913,24.5037776 L1292.45577,24.0729187 L1292.18168,23.7145879 L1292.18168,23.7145879 L1291.90686,23.3577347 C1291.68611,23.0740254 1291.46438,22.7922863 1291.24068,22.5115322 C1291.05344,22.277078 1290.86521,22.0426238 1290.67501,21.8091546 C1290.44737,21.5313559 1290.21775,21.2545423 1289.98715,20.9796989 C1289.79498,20.7511552 1289.60281,20.5216265 1289.40867,20.2950531 L1289.05304,19.8852507 L1289.05304,19.8852507 L1288.69519,19.4784036 L1288.63113,19.404521 C1288.45572,19.2065155 1288.2803,19.00851 1288.1039,18.8114897 L1287.73484,18.4069822 L1287.73484,18.4069822 L1287.36282,18.0046913 L1287.215,17.8451048 L1286.99105,17.6038779 L1286.99105,17.6038779 L1286.76562,17.36339 L1286.76464,17.3624049 L1286.3941,16.9761218 L1286.0206,16.5920552 L1285.82055,16.3861689 C1285.67864,16.2393887 1285.53673,16.0935937 1285.39285,15.9487837 L1285.01591,15.574445 L1285.01591,15.574445 L1284.63601,15.2030616 L1284.56801,15.1370598 L1284.56801,15.1360747 L1284.37091,14.9439798 L1284.17936,14.7554559 L1284.17936,14.7554559 L1283.98559,14.5676709 L1283.58401,14.1888992 L1283.17947,13.8130829 L1283.08092,13.7214684 C1280.86031,11.6619488 1278.51434,9.72073869 1276.0963,7.93935022 L1275.18626,7.27890227 L1274.72801,6.95578886 L1274.22801,6.60632397 L1273.72578,6.26129205 L1273.48028,6.09394787 L1273.48028,6.09394787 L1273.23403,5.92734252 L1272.68598,5.56359366 L1272.13424,5.20427776 L1271.76074,4.9609576 L1271.0241,4.49574325 L1271.0241,4.49574325 L1270.28154,4.03791716 L1269.9514,3.84089679 C1269.55623,3.60348725 1269.16302,3.37001811 1268.76587,3.14048937 L1268.54747,3.01464261 L1268.54747,3.01464261 L1268.32832,2.8902735 L1268.25835,2.84988433 L1267.72583,2.55004395 L1267.72583,2.55004395 L1267.19108,2.25389771 L1267.1152,2.21252343 L1266.68356,1.97708408 L1266.04817,1.6377165 L1265.40835,1.30425952 L1265.12355,1.15550914 L1264.34022,0.760852707 L1264.34022,0.760852707 L1263.55171,0.374323367 L1263.11712,0.168437079 L1262.764,0.002 L1269.693,0.002 Z M1195.013,0.002 L1194.52689,0.231483598 L1194.28545,0.344770311 L1193.51406,0.723418836 L1193.51406,0.723418836 L1192.74712,1.11019445 L1192.34307,1.31805094 L1191.74957,1.62811175 L1191.74957,1.62811175 L1191.1605,1.94260552 L1190.74463,2.16622364 L1189.99295,2.5811978 L1189.99295,2.5811978 L1189.24571,3.00356022 L1189.24473,3.00454532 L1189.09395,3.09320449 C1189.09297,3.09320449 1189.09198,3.09418959 1189.09099,3.09418959 C1188.64359,3.35228627 1188.20012,3.61530847 1187.75764,3.88227107 L1187.54503,4.01156569 L1187.54503,4.01156569 L1187.33093,4.14233796 L1187.32995,4.14332306 L1186.74519,4.50387034 L1186.16413,4.87032823 L1185.84976,5.06931881 L1185.13442,5.53477943 L1185.13442,5.53477943 L1184.42574,6.00615067 L1184.09265,6.2337092 L1183.5345,6.61703696 L1183.5345,6.61703696 L1182.98005,7.00405885 L1182.57896,7.28875328 L1181.92189,7.76271041 L1181.92189,7.76271041 L1181.26926,8.24331698 L1181.26827,8.24430208 L1181.25349,8.2551382 L1181.21801,8.28173595 C1181.21703,8.28173595 1181.19042,8.30045289 1181.19042,8.30143799 L1180.50896,8.81787764 L1180.50896,8.81787764 L1179.83342,9.34170555 L1179.83243,9.34170555 L1179.45795,9.63822121 L1178.93737,10.0535648 L1178.42123,10.4726025 L1178.08222,10.7504012 L1177.43082,11.2949163 L1177.43082,11.2949163 L1176.78534,11.8468196 L1176.55079,12.0517208 L1176.38314,12.2004711 L1176.21474,12.3492215 L1175.85073,12.6707341 L1175.85073,12.6707341 L1175.48746,12.9944632 L1175.11791,13.330383 L1174.58834,13.8189935 L1174.58834,13.8189935 L1174.06246,14.3135146 L1173.85551,14.5075797 L1173.24414,15.0982714 L1172.63943,15.6956125 L1172.32408,16.0118302 L1171.85967,16.4833246 L1171.85967,16.4833246 L1171.3997,16.9585131 L1171.06957,17.3023136 L1170.48629,17.9215733 L1170.48629,17.9215733 L1169.90966,18.5474824 L1169.81702,18.6509181 L1169.81308,18.6548585 L1169.28819,19.2412404 L1168.76847,19.8320552 L1168.76946,19.8320552 L1168.44622,20.2054088 L1168.00485,20.7228336 L1167.56718,21.2446913 L1167.31982,21.5402218 L1166.78385,22.1995012 L1166.78385,22.1995012 L1166.25452,22.8632136 L1166.01406,23.1735207 L1165.59881,23.7096624 L1165.59881,23.7096624 L1165.18725,24.250237 L1164.88963,24.646248 L1164.69155,24.9181361 L1164.3236,25.4185678 L1164.3236,25.4185678 L1163.95934,25.9219549 L1163.87952,26.0322863 L1163.38678,26.7351564 L1163.38678,26.7351564 L1162.90291,27.4409819 L1162.63683,27.8369929 L1162.26851,28.3911127 L1162.26851,28.3911127 L1161.90462,28.9481878 L1161.66318,29.3215414 L1161.20703,30.0443599 L1161.20703,30.0443599 L1160.75753,30.7716113 L1160.61069,31.0188719 L1160.60971,31.019857 L1160.23843,31.6410868 L1159.87158,32.2669959 L1159.62127,32.703396 L1159.26896,33.3257341 L1159.26896,33.3257341 L1158.92257,33.9525052 L1158.77278,34.2234082 L1158.3691,34.9782425 L1157.97355,35.7375097 L1157.77252,36.1345058 L1157.47182,36.732832 L1157.47182,36.732832 L1157.1763,37.3333748 L1156.96344,37.7697749 C1155.75371,40.2951382 1154.67168,42.9022285 1153.7388,45.5329288 L1153.39601,46.5204346 L1153.27282,46.8947734 C1153.26198,46.9262966 1153.25312,46.9578199 1153.24228,46.9893431 L1153.03717,47.611435 L1153.03717,47.611435 L1152.83724,48.2364821 L1152.76691,48.4634249 L1152.69731,48.6896289 L1152.65394,48.8324687 L1152.47976,49.4106004 L1152.31001,49.9909485 C1152.24891,50.1997901 1152.1888,50.4096168 1152.12967,50.6204286 L1151.96497,51.2197399 L1151.96497,51.2197399 L1151.80545,51.8212677 L1151.79954,51.8409698 L1151.74731,52.0379901 L1151.7016,52.2118606 L1151.7016,52.2118606 L1151.65664,52.3857311 L1151.44821,53.2185116 L1151.24865,54.0535085 L1151.2319,54.125421 C1151.0959,54.7105715 1150.96976,55.2927667 1150.83771,55.9320978 L1150.76774,56.282794 L1150.72734,56.4886803 C1150.64456,56.9053784 1150.56375,57.3230616 1150.48688,57.7417299 L1150.42886,58.0674292 L1150.42886,58.0674292 L1150.37158,58.3938673 L1150.2697,58.9960108 L1150.17153,59.599632 L1150.14886,59.7434568 L1150.10956,59.9908405 L1150.10956,59.9908405 L1150.07101,60.2389631 L1149.97246,60.926441 L1149.87884,61.6161355 L1149.81675,62.0732227 L1149.81675,62.0742078 L1149.77943,62.3821753 L1149.74284,62.6879263 C1149.73102,62.7893918 1149.71821,62.8918424 1149.70638,62.9923228 L1149.65748,63.4373425 L1149.65748,63.4373425 L1149.61079,63.874974 L1149.60931,63.8870415 L1149.60931,63.8870415 L1149.60783,63.8976314 L1149.60734,63.9050196 L1149.60685,63.9124079 L1149.60685,63.9143781 L1149.59564,64.0311127 L1149.58517,64.1478472 L1149.56644,64.3458527 L1149.50042,65.0574657 L1149.50042,65.0574657 L1149.4403,65.7712951 L1149.42035,66.0282835 L1149.42035,66.0282835 L1149.40187,66.2845332 L1149.393,66.4194921 C1149.36245,66.8352051 1149.33683,67.249933 1149.31416,67.6666311 C1149.30135,67.8922194 1149.28854,68.1178077 1149.27868,68.343396 L1149.25109,68.9955335 L1149.25109,68.9955335 L1149.22941,69.6476709 L1149.22251,69.8535572 L1149.21586,70.0481148 L1149.21586,70.0481148 L1149.21069,70.2426724 C1149.19787,70.7667466 1149.19098,71.2464912 1149.18802,71.6966827 C1149.18703,71.8464182 1149.18703,71.9931984 1149.18703,72.1370233 C1149.18703,73.0167192 1148.47355,73.729933 1147.59352,73.729933 C1146.71349,73.729933 1146,73.0167192 1146,72.1370233 C1146,71.5361111 1146.00788,70.8928396 1146.02464,70.1697749 L1146.03104,69.9589631 L1146.03104,69.9589631 L1146.03745,69.7481513 L1146.04336,69.5491607 L1146.06726,68.8722726 L1146.09559,68.197601 C1146.10643,67.9631467 1146.11826,67.7286925 1146.13107,67.4942382 L1146.17061,66.8429628 L1146.17061,66.8429628 L1146.21385,66.1939038 L1146.2237,66.0619001 C1146.23651,65.8816265 1146.24834,65.7013529 1146.26312,65.5210792 L1146.32582,64.7785587 L1146.32582,64.7785587 L1146.39518,64.0375158 L1146.41094,63.8621677 C1146.41883,63.7705532 1146.4277,63.6779536 1146.43755,63.5853541 L1146.43804,63.5804286 L1146.43854,63.5735329 L1146.43903,63.5705775 C1146.44051,63.5587563 1146.44051,63.555801 1146.44051,63.5528457 C1146.44051,63.5528457 1146.44149,63.5518606 1146.44149,63.5508755 C1146.50259,62.9489783 1146.57355,62.3254088 1146.65337,61.6949436 C1146.65337,61.6880479 1146.65436,61.6811522 1146.65534,61.6752416 L1146.67505,61.528954 L1146.67505,61.528954 L1146.69476,61.3826663 L1146.7194,61.2004225 C1146.78247,60.721663 1146.84948,60.2438886 1146.92044,59.7680844 L1146.96047,59.5062936 L1146.96047,59.5062936 L1147.00125,59.2459804 L1147.02293,59.1041257 C1147.09092,58.6834872 1147.15892,58.264819 1147.23185,57.8481209 L1147.29122,57.5083839 L1147.29122,57.5083839 L1147.35208,57.1693857 L1147.47464,56.5171251 L1147.60239,55.867081 L1147.6014,55.867081 L1147.64082,55.6710458 C1147.66546,55.5429825 1147.69009,55.4159044 1147.71769,55.2888263 C1147.81968,54.7908573 1147.91946,54.3255813 1148.01994,53.8780373 L1148.12075,53.4358497 L1148.13652,53.3659074 C1148.27941,52.7551443 1148.42132,52.1759044 1148.56914,51.5996198 L1148.6226,51.3912708 L1148.6226,51.3912708 L1148.67754,51.1829217 L1148.72287,51.0105289 L1148.74061,50.9484675 C1148.84409,50.5524565 1148.95052,50.1564456 1149.06089,49.7624049 L1149.15377,49.4343659 L1149.15377,49.4343659 L1149.24813,49.106327 L1149.4249,48.5033215 L1149.4249,48.5033215 L1149.60685,47.9025325 L1149.64922,47.7606779 C1149.69751,47.6020765 1149.74679,47.44249 1149.79705,47.2829035 L1150.02038,46.5839737 L1150.02038,46.5839737 L1150.25036,45.8879993 L1150.37848,45.498884 C1151.30877,42.7554848 1152.39946,40.0307661 1153.62425,37.3835366 L1154.08979,36.3945727 L1154.31053,35.9404407 L1154.618,35.3152705 L1154.618,35.3152705 L1154.93138,34.6923167 L1154.93237,34.6903465 L1155.13932,34.2825143 C1155.13932,34.2815292 1155.13932,34.2815292 1155.1403,34.2805441 L1155.55125,33.4903693 L1155.55125,33.4903693 L1155.97106,32.7053662 L1156.12677,32.4246122 L1156.48745,31.7721054 L1156.85405,31.1232927 L1156.85504,31.1213225 L1157.11619,30.6681756 L1157.49535,30.0193629 L1157.49535,30.0193629 L1157.8819,29.3727667 L1158.03465,29.1166402 C1158.03564,29.1156551 1158.03564,29.1156551 1158.03564,29.11467 L1158.50288,28.3586043 L1158.50288,28.3586043 L1158.97677,27.6084492 L1159.22807,27.219334 L1159.60723,26.6392322 L1159.60723,26.6392322 L1159.99083,26.0628244 L1159.99083,26.0618393 L1160.26577,25.652037 L1160.768,24.9205988 L1160.768,24.9205988 L1161.27687,24.1950713 L1161.36064,24.0778442 L1161.36347,24.0747658 L1161.36557,24.0709485 L1161.84611,23.4058816 L1162.33331,22.7459865 L1162.64176,22.3342139 L1163.06921,21.7718439 L1163.06921,21.7718439 L1163.5011,21.213168 L1163.74944,20.8949801 C1163.74944,20.893995 1163.75042,20.893995 1163.75042,20.8930099 L1164.30057,20.202946 L1164.30057,20.202946 L1164.8581,19.5187928 L1165.01183,19.3345788 L1165.11334,19.2124261 C1165.14783,19.1710519 1165.18232,19.1306627 1165.21681,19.0902735 C1165.48191,18.7720856 1165.74799,18.4558679 1166.01801,18.1426055 L1166.02392,18.1357098 L1166.02983,18.1288141 L1166.36391,17.7416691 L1166.90617,17.125611 L1166.90617,17.125611 L1167.45286,16.5162024 L1167.54747,16.4107965 C1167.54845,16.4098114 1167.54944,16.4078412 1167.55042,16.4068561 L1168.1512,15.7548418 L1168.1512,15.7548418 L1168.75862,15.1094769 L1169.10058,14.75287 L1169.57915,14.258472 L1169.57915,14.258472 L1170.06142,13.7677682 L1170.06241,13.7677682 L1170.06339,13.7667831 L1170.27921,13.5490756 L1170.38959,13.4377591 C1170.7887,13.0417481 1171.19078,12.6486925 1171.5968,12.2595772 L1171.6255,12.231625 L1171.6255,12.231625 L1171.65494,12.2044115 L1171.87076,12.0004955 L1172.41671,11.4879962 L1172.41671,11.4879962 L1172.96858,10.9799299 L1172.96858,10.9789448 L1173.35193,10.6302188 L1173.50714,10.4929202 L1173.66236,10.3563605 L1174.05852,10.0017238 L1174.05852,10.0017238 L1174.45764,9.65004243 L1174.70006,9.43726043 L1174.70006,9.43627533 C1174.70204,9.43529023 1174.70302,9.43430512 1174.70401,9.43430512 L1175.37376,8.86171467 L1175.37376,8.86171467 L1176.05017,8.29651248 L1176.40198,8.00886274 C1176.40198,8.00886274 1176.40198,8.00787764 1176.40297,8.00787764 L1176.93882,7.57270889 L1176.93882,7.57270889 L1177.47911,7.14197311 L1177.47911,7.14098801 L1177.87133,6.83166602 L1178.57311,6.28764352 L1178.57311,6.28764352 L1179.28155,5.75100929 L1179.34166,5.70667971 C1179.65636,5.47222546 1179.96317,5.24740333 1180.26823,5.02666754 L1180.72527,4.69793541 L1181.14213,4.40240485 L1181.71864,3.99937505 L1181.71864,3.99937505 L1182.2981,3.60151704 L1182.644,3.3650926 L1183.38151,2.87438874 L1184.12419,2.39181196 L1184.45432,2.18198527 C1184.85541,1.92684389 1185.25946,1.67465781 1185.66646,1.42641215 C1185.8133,1.33578278 1185.9621,1.24515341 1186.10992,1.15550914 C1186.11091,1.15550914 1186.11091,1.15452404 1186.11091,1.15452404 L1186.80247,0.741889496 L1187.49846,0.335904394 L1187.66008,0.241334616 L1188.083,0.002 L1195.013,0.002 Z M1228.62318,8.40383021 C1243.84353,8.40383021 1258.52779,13.943086 1269.9699,24.0008695 C1281.30263,33.9636096 1288.70438,47.6568082 1290.81227,62.5578516 C1290.82311,62.6350745 1290.82902,62.7113073 1290.82902,62.7865501 C1290.82902,63.5706593 1290.2545,64.2547747 1289.45924,64.3676389 C1288.58711,64.4943636 1287.78101,63.8835109 1287.65783,63.0083184 C1285.65834,48.8656431 1278.63106,35.8684403 1267.87088,26.409629 C1257.01019,16.8627044 1243.07191,11.6046191 1228.62318,11.6046191 C1212.98401,11.6046191 1198.20416,17.6438434 1187.00644,28.6075106 C1175.82941,39.5513771 1169.44071,54.1969911 1169.01499,69.8465024 C1168.99134,70.7157547 1168.2828,71.4038302 1167.42349,71.4038302 C1167.4087,71.4038302 1167.39392,71.4038302 1167.37914,71.4028402 C1166.56291,71.3803993 1165.90578,70.7459783 1165.83528,69.948284 L1165.82902,69.8059109 L1165.82902,69.7593791 C1166.2774,53.2722968 1173.00806,37.8435637 1184.78227,26.3145855 C1196.57816,14.7648165 1212.14835,8.40383021 1228.62318,8.40383021 Z M1228.62837,18.4038302 C1243.29469,18.4038302 1257.42808,24.6971635 1267.40367,35.6707484 C1267.68789,35.9826981 1267.82902,36.3791761 1267.82902,36.7746478 C1267.82902,37.2123837 1267.6573,37.6491132 1267.31781,37.9691132 C1267.01088,38.2599308 1266.62204,38.4038302 1266.2332,38.4038302 C1265.80489,38.4038302 1265.37756,38.2287359 1265.06274,37.8825723 C1255.68916,27.5711258 1242.41043,21.6581698 1228.62837,21.6581698 C1217.29974,21.6581698 1206.21982,25.6491132 1197.42753,32.8954025 C1196.74163,33.4599308 1195.73795,33.3512516 1195.18332,32.6528868 C1194.94449,32.351 1194.82902,31.9887359 1194.82902,31.6294906 C1194.82902,31.1555283 1195.03133,30.6855912 1195.42215,30.3645849 C1204.77894,22.6513774 1216.57141,18.4038302 1228.62837,18.4038302 Z" id="Combined-Shape" fill="#FFFFFF"></path>
                <path d="M969.904271,108 C974.761701,108 978.266475,111.932217 977.691229,116.737854 L968.585616,192.841592 C968.01037,197.647228 967.820153,201.579445 968.161993,201.579445 C968.50567,201.579445 971.888227,199.105673 975.681543,196.081666 L1036.52806,147.582184 C1040.3223,144.558176 1045.39751,145.522233 1047.80785,149.724533 L1061.4364,173.486294 C1063.84674,177.688594 1062.16603,182.686492 1057.70098,184.592633 L986.854734,214.844613 C982.389685,216.75167 978.736045,218.590061 978.736045,218.929724 C978.736045,219.270303 982.345576,221.205741 986.758247,223.232733 L1058.41866,256.146169 C1062.83041,258.172245 1064.31723,263.178383 1061.72402,267.270819 L1058.725,272 L1014.203,272 L975.131108,241.687145 C971.299197,238.713492 967.88264,236.280003 967.5408,236.280003 C967.198042,236.280003 967.424097,240.208559 968.042532,245.008702 L971.52,272 L943.704,272 L947.125997,245.627603 C947.749027,240.827459 947.978757,236.900735 947.635999,236.900735 C947.29416,236.900735 943.864737,239.317744 940.017205,242.271256 L901.29,272 L857.794,272 L853.754183,264.986562 C851.336495,260.787925 852.98872,255.740588 857.425282,253.768528 L927.750495,222.516785 C932.187058,220.544726 935.816805,218.652318 935.816805,218.311739 C935.816805,217.970245 932.173274,216.109881 927.720171,214.176274 L856.833496,183.401524 C852.379473,181.467917 850.695087,176.440721 853.09072,172.230182 L865.529268,150.360828 C867.923064,146.150289 873.0479,145.101087 876.915649,148.028964 L940.603478,196.254701 C944.471227,199.183494 947.915352,201.579445 948.25811,201.579445 C948.59995,201.579445 948.359192,197.653637 947.72054,192.855325 L937.599517,116.723205 C936.960865,111.925808 940.41418,108 945.271609,108 L969.904271,108 Z" id="Combined-Shape" fill="#FFA074"></path>
                <path d="M608.765823,0.000794768163 C634.9119,16.9213198 652.841947,45.6578846 654.8116,78.276903 C656.335303,103.503594 648.530002,126.858778 634.543396,145.258243 L634.543396,145.258243 L649.25781,173.8461 C651.048346,177.3232 647.320977,181.050571 643.842957,179.260034 L643.842957,179.260034 L615.256031,164.545615 C596.856573,178.533146 573.500478,186.33753 548.273797,184.814746 C498.767229,181.825305 458.203219,142.070057 454.319431,92.624198 C451.27486,53.8476919 470.255685,19.2446636 500.078542,-0.00129268124 Z" id="Combined-Shape" fill="#00B47B"></path>
                <path d="M269.769551,243.360405 C270.505602,244.113776 270.875351,245.101254 270.875351,246.087852 C270.875351,247.07445 270.505602,248.061928 269.769551,248.814419 L247.064,272 L237.345068,272.000115 C237.475076,271.24845 237.824253,270.528548 238.392598,269.947509 L264.428445,243.360405 C265.903131,241.855425 268.294003,241.855425 269.769551,243.360405 Z M292.703748,246.779829 C294.750246,246.779829 296.407901,248.48762 296.407901,250.594071 L296.407,272 L289,272 L289.00044,250.594071 C289.00044,248.48762 290.658096,246.779829 292.703748,246.779829 Z M320.59687,243.360757 L346.632716,269.947861 C347.201083,270.528244 347.550521,271.248415 347.680634,272.000154 L337.961,272 L315.255763,248.814771 C313.781938,247.30803 313.781938,244.867498 315.255763,243.360757 C316.73045,241.854897 319.121321,241.854897 320.59687,243.360757 Z M292.06009,210.338624 C297.642212,210.338624 302.168421,214.888102 302.168421,220.5 C302.168421,226.111898 297.642212,230.661376 292.06009,230.661376 C286.478841,230.661376 281.952632,226.111898 281.952632,220.5 C281.952632,214.888102 286.478841,210.338624 292.06009,210.338624 Z M262.323329,216.52381 C264.42695,216.52381 266.131579,218.304315 266.131579,220.500454 C266.131579,222.696592 264.42695,224.47619 262.323329,224.47619 L212.80825,224.47619 C210.704629,224.47619 209,222.696592 209,220.500454 C209,218.304315 210.704629,216.52381 212.80825,216.52381 L262.323329,216.52381 Z M372.190938,216.52381 C374.294528,216.52381 376,218.304315 376,220.500454 C376,222.696592 374.294528,224.47619 372.190938,224.47619 L322.677483,224.47619 C320.573893,224.47619 318.868421,222.696592 318.868421,220.500454 C318.868421,218.304315 320.573893,216.52381 322.677483,216.52381 L372.190938,216.52381 Z M243.536685,165.497827 L269.42671,191.524141 C270.158638,192.260808 270.526316,193.226661 270.526316,194.193374 C270.526316,195.160088 270.158638,196.125079 269.42671,196.862607 C267.959425,198.336803 265.581945,198.336803 264.115518,196.862607 L238.225493,170.836293 C236.759923,169.362959 236.759923,166.972023 238.225493,165.497827 C239.691921,164.02277 242.069401,164.02277 243.536685,165.497827 Z M346.774089,165.497181 C347.506867,166.233848 347.873684,167.1997 347.873684,168.166414 C347.873684,169.133128 347.506867,170.098118 346.774089,170.835647 L320.883456,196.861961 C319.417043,198.337018 317.038729,198.337018 315.573173,196.861961 C314.107617,195.389489 314.10676,192.998552 315.573173,191.523495 L341.463805,165.497181 C342.929361,164.022986 345.307676,164.022986 346.774089,165.497181 Z M292.060075,137 C294.245558,137 296.015789,138.713674 296.015789,140.828458 L296.015789,190.605404 C296.015789,192.720188 294.245558,194.433862 292.060075,194.433862 C289.875495,194.433862 288.105263,192.720188 288.105263,190.605404 L288.105263,140.828458 C288.105263,138.713674 289.875495,137 292.060075,137 Z" id="Combined-Shape" fill="#FFC100"></path>
            </g>
        </g>
    </g>
</svg>